#N canvas 2 23 1278 694 12;
#N canvas 0 23 1280 694 route 0;
#X obj 2 24 route keypoints;
#X obj 2 48 route nose leftEye rightEye leftEar rightEar leftShoulder
rightShoulder leftElbow rightElbow leftWrist rightWrist leftHip rightHip
leftKnee rightKnee leftAnkle rightAnkle, f 180;
#X obj 2 622 list split 1;
#X floatatom 2 646 5 0 0 0 - - nose.x;
#X floatatom 42 646 5 0 0 0 - - nose.y;
#X obj 72 572 list split 1;
#X floatatom 72 596 5 0 0 0 - - leftEye.x;
#X floatatom 112 596 5 0 0 0 - - leftEye.y;
#X obj 149 522 list split 1;
#X floatatom 149 546 5 0 0 0 - - rightEye.x;
#X floatatom 189 546 5 0 0 0 - - rightEye.y;
#X obj 223 472 list split 1;
#X floatatom 223 496 5 0 0 0 - - leftEar.x;
#X floatatom 263 496 5 0 0 0 - - leftEar.y;
#X obj 297 412 list split 1;
#X floatatom 297 436 5 0 0 0 - - rightEar.x;
#X floatatom 337 436 5 0 0 0 - - rightEar.y;
#X obj 371 362 list split 1;
#X floatatom 371 386 5 0 0 0 - - leftShoulder.x;
#X floatatom 411 386 5 0 0 0 - - leftShoulder.y;
#X obj 445 312 list split 1;
#X floatatom 445 336 5 0 0 0 - - rightShoulder.x;
#X floatatom 485 336 5 0 0 0 - - rightShoulder.y;
#X obj 519 262 list split 1;
#X floatatom 519 286 5 0 0 0 - - leftElbow.x;
#X floatatom 559 286 5 0 0 0 - - leftElbow.y;
#X obj 593 212 list split 1;
#X floatatom 593 236 5 0 0 0 - - rightElbow.x;
#X floatatom 633 236 5 0 0 0 - - rightElbow.y;
#X obj 667 167 list split 1;
#X floatatom 667 191 5 0 0 0 - - leftWrist.x;
#X floatatom 707 191 5 0 0 0 - - leftWrist.y;
#X obj 741 121 list split 1;
#X floatatom 741 145 5 0 0 0 - - rightWrist.x;
#X floatatom 781 145 5 0 0 0 - - rightWrist.y;
#X obj 815 72 list split 1;
#X floatatom 815 96 5 0 0 0 - - leftHip.x;
#X floatatom 855 96 5 0 0 0 - - leftHip.y;
#X obj 911 72 list split 1;
#X floatatom 911 96 5 0 0 0 - - rightHip.x;
#X floatatom 951 96 5 0 0 0 - - rightHip.y;
#X obj 1005 72 list split 1;
#X floatatom 1005 96 5 0 0 0 - - leftKnee.x;
#X floatatom 1045 96 5 0 0 0 - - leftKnee.y;
#X obj 1098 72 list split 1;
#X floatatom 1098 96 5 0 0 0 - - rightKnee.x;
#X floatatom 1138 96 5 0 0 0 - - rightKnee.y;
#X obj 1188 72 list split 1;
#X floatatom 1188 96 5 0 0 0 - - leftAnkle.x;
#X floatatom 1228 96 5 0 0 0 - - leftAnkle.y;
#X obj 1280 72 list split 1;
#X floatatom 1280 96 5 0 0 0 - - rightAnkle.x;
#X floatatom 1320 96 5 0 0 0 - - rightAnkle.y;
#X obj 2 2 inlet;
#X connect 0 0 1 0;
#X connect 1 0 2 0;
#X connect 1 1 5 0;
#X connect 1 2 8 0;
#X connect 1 3 11 0;
#X connect 1 4 14 0;
#X connect 1 5 17 0;
#X connect 1 6 20 0;
#X connect 1 7 23 0;
#X connect 1 8 26 0;
#X connect 1 9 29 0;
#X connect 1 10 32 0;
#X connect 1 11 35 0;
#X connect 1 12 38 0;
#X connect 1 13 41 0;
#X connect 1 14 44 0;
#X connect 1 15 47 0;
#X connect 1 16 50 0;
#X connect 2 0 3 0;
#X connect 2 1 4 0;
#X connect 5 0 6 0;
#X connect 5 1 7 0;
#X connect 8 0 9 0;
#X connect 8 1 10 0;
#X connect 11 0 12 0;
#X connect 11 1 13 0;
#X connect 14 0 15 0;
#X connect 14 1 16 0;
#X connect 17 0 18 0;
#X connect 17 1 19 0;
#X connect 20 0 21 0;
#X connect 20 1 22 0;
#X connect 23 0 24 0;
#X connect 23 1 25 0;
#X connect 26 0 27 0;
#X connect 26 1 28 0;
#X connect 29 0 30 0;
#X connect 29 1 31 0;
#X connect 32 0 33 0;
#X connect 32 1 34 0;
#X connect 35 0 36 0;
#X connect 35 1 37 0;
#X connect 38 0 39 0;
#X connect 38 1 40 0;
#X connect 41 0 42 0;
#X connect 41 1 43 0;
#X connect 44 0 45 0;
#X connect 44 1 46 0;
#X connect 47 0 48 0;
#X connect 47 1 49 0;
#X connect 50 0 51 0;
#X connect 50 1 52 0;
#X connect 53 0 0 0;
#X restore 4 31 pd route;
#X floatatom 209 21 5 0 0 2 Nose-X nose.x -;
#X floatatom 259 21 5 0 0 2 Nose-Y nose.y -;
#X floatatom 318 21 5 0 0 2 Left-Eye-X leftEye.x -;
#X floatatom 394 21 10 0 0 2 Left-Eye-Y leftEye.y -;
#X floatatom 477 21 10 0 0 2 Right-Eye-X rightEye.x -;
#X floatatom 567 21 10 0 0 2 Right-Eye-Y rightEye.y -;
#X floatatom 654 21 10 0 0 2 Left-Ear-X leftEar.x -;
#X floatatom 744 21 10 0 0 2 Left-Ear-Y leftEar.y -;
#X floatatom 829 21 10 0 0 2 Right-Ear-X rightEar.x -;
#X floatatom 911 21 10 0 0 2 Right-Ear-Y rightEar.y -;
#X floatatom 998 21 10 0 0 2 Left-Shoulder-X leftShoulder.x -;
#X floatatom 1108 21 10 0 0 2 Left-Shoulder-Y leftShoulder.y -;
#X floatatom 209 111 10 0 0 2 Right-Shoulder-X rightShoulder.x -;
#X floatatom 329 111 10 0 0 2 Right-Shoulder-Y rightShoulder.y -;
#X floatatom 450 111 10 0 0 2 Left-Elbow-X leftElbow.x -;
#X floatatom 540 111 10 0 0 2 Left-Elbow-Y leftElbow.y -;
#X floatatom 634 111 10 0 0 2 Right-Elbow-X rightElbow.x -;
#X floatatom 734 111 10 0 0 2 Right-Elbow-Y rightElbow.y -;
#X floatatom 839 111 10 0 0 2 Left-Wrist-X leftWrist.x -;
#X floatatom 929 111 10 0 0 2 Left-Wrist-Y leftWrist.y -;
#X floatatom 1025 111 10 0 0 2 Right-Wrist-X rightWrist.x -;
#X floatatom 1125 111 10 0 0 2 Right-Wrist-Y rightWrist.y -;
#X floatatom 209 181 10 0 0 2 Left-Hip-X leftHip.x -;
#X floatatom 289 181 10 0 0 2 Left-Hip-Y leftHip.y -;
#X floatatom 383 181 10 0 0 2 Right-Hip-X rightHip.x -;
#X floatatom 473 181 10 0 0 2 Right-Hip-Y rightHip.y -;
#X floatatom 569 181 10 0 0 2 Left-Knee-X leftKnee.x -;
#X floatatom 659 181 10 0 0 2 Left-Knee-Y leftKnee.y -;
#X floatatom 752 181 10 0 0 2 Right-Knee-X rightKnee.x -;
#X floatatom 842 181 10 0 0 2 Right-Knee-Y rightKnee.y -;
#X floatatom 942 181 10 0 0 2 Left-Ankle-X leftAnkle.x -;
#X floatatom 1032 181 10 0 0 2 Left-Ankle-Y leftAnkle.y -;
#N canvas 140 94 166 190 osc 0;
#X obj 5 154 outlet;
#X obj 5 30 oscparse;
#X obj 5 6 netreceive -u -b 3334;
#X obj 5 54 list trim;
#X obj 5 78 route poses;
#X obj 5 105 list-delete 0 1;
#X obj 5 129 list trim;
#X connect 1 0 3 0;
#X connect 2 0 1 0;
#X connect 3 0 4 0;
#X connect 4 0 5 0;
#X connect 5 0 6 0;
#X connect 6 0 0 0;
#X restore 4 6 pd osc;
#X connect 33 0 0 0;
